<?xml version="1.0" encoding="utf-8"?>
<!-- Generator: Adobe Illustrator 25.2.0, SVG Export Plug-In . SVG Version: 6.00 Build 0)  -->
<svg version="1.1" id="Layer_1" xmlns="http://www.w3.org/2000/svg" xmlns:xlink="http://www.w3.org/1999/xlink" x="0px" y="0px"
	 viewBox="0 0 478 336.8" style="enable-background:new 0 0 478 336.8;" xml:space="preserve">
<style type="text/css">
	.st0{fill:#F2AC1D;}
	.st1{fill:#F15D22;}
	.st2{fill:#CB2027;}
	.st3{fill:#79A340;}
	.st4{fill:url(#SVGID_1_);}
	.st5{fill:url(#SVGID_2_);}
	.st6{fill:url(#SVGID_3_);}
	.st7{fill:url(#SVGID_4_);}
	.st8{fill:url(#SVGID_5_);}
	.st9{fill:url(#SVGID_6_);}
	.st10{fill:url(#SVGID_7_);}
	.st11{fill:url(#SVGID_8_);}
</style>
<g>
	<path class="st0" d="M468.5,200.4c-2.3-3.4-5.8-5.7-9.8-6.4c-1.7-0.2-3.5-0.2-5.2,0.1l-1-0.4l-0.5-0.2c-2.1-0.7-4.3-1.2-6.5-1.6
		c-6.3-1-12.8,0.2-18.3,3.5c-0.4-0.7-0.8-1.3-1.2-1.9c-2.4-3-5.8-4.9-9.6-5.2c-3.7-0.4-7.4-0.6-11.1-0.5c-3,0-6,0.4-9,1
		c-2.2-2.1-5-3.4-8-3.6l-5.7-0.4l0,0c-6.8-0.3-14.6,0-20,2.5c-5.4-3.7-11.7-5.9-18.2-6.2c-10.1-0.7-19.6,2.3-26.6,8.5l-0.4,0.4
		c-0.3-0.3-0.6-0.7-0.9-1c-6.1-6.6-14.7-10.5-23.8-10.7c-4.9-0.2-9.9,0.4-14.6,1.9c-0.6-5.4-2.8-10.4-6.4-14.4
		c-2.5-2.8-6-4.4-9.8-4.6c-1.1,0-3.9,0.1-14.3,0.4h-0.3l-6,0.2c-3.8,0-10.1-0.2-15.3-0.4h-0.1c-6.1-0.2-8.5-0.3-9.6-0.3
		c-3.5,0.1-6.9,1.1-9.9,2.9c-2.8-2.4-6.3-3.7-10-3.6c-1.4,0.1-2.7,0.3-4,0.8c-1,0.3-3.3,1.1-10.6,1.3c-8.3,0.3-16.7,0.7-24.9,1.1
		h-1.1c-3.1,0.1-7.5,0.2-11.4,2.3c-4.1-1.5-9.4-1.9-16.4-1.4c-8.6,0.7-14.4,2.1-18.5,4.7c-4.1-1.8-9.6-2.4-16.4-1.7
		c-12.4,1.1-19,4.6-22.5,7.8c-3.4-1.6-7.3-1.7-10.9-0.5l-0.2-0.1c-5.5-1.7-11.3-2.3-17.1-1.6c-11.9,1.7-22.7,8-29.9,17.6
		c-6.2,8.1-8.9,18.4-7.3,28.5c3.2,19.5,21,34.2,41.5,34.2c2,0,3.9-0.1,5.8-0.4c6.2-0.9,12.2-3.2,17.5-6.6l1.3-0.8
		c1.6-0.4,3.1-1,4.5-1.9c3.5,2.6,8.6,3.9,15.2,3.9c1.9,0,4.1-0.1,6.4-0.3c7.7-0.8,13.4-2.5,17.4-5.1c6.1,2.8,13.6,2.2,17.1,2
		c5.7-0.4,12-1.2,16.9-3.8c2.1,0.8,4.4,1.2,6.6,1.2c0.5,0,1,0,1.5,0c11.2-0.7,22.5-1.2,33.7-1.6c1.8-0.1,3.6,0,5.5,0.1h0.3l1.3,0.2
		l0,0c1.2,0.2,2.3,0.3,3.5,0.3c2.7-0.1,5.3-1.1,7.4-2.8c5.2,2.4,11.9,2.4,17.3,2.3c14.5-0.1,21.4-1.8,25.6-6.1
		c2.5-2.5,3.8-5.9,3.6-9.4v-0.1c0-0.9,0-1.8-0.1-2.7c0.4-0.2,0.9-0.4,1.3-0.6c4.2,11.7,15.5,19.3,30.2,19.8c8.5,0.2,16.9-2.1,24-6.7
		c1.3-0.9,2.6-1.8,3.8-2.9c5.9,7.3,14.6,11.7,23.9,12.3c0.9,0.1,1.8,0.1,2.6,0.1c8.5,0,16.1-2.5,21.2-6.9c0.4,0.7,0.9,1.4,1.5,2.1
		c3.9,4.7,9.4,7.3,16.9,8.1c3.4,0.4,6.8,0,10-1c2.3,1.7,5,2.7,7.8,2.9c2.2,0.2,4.4,0.3,6.6,0.3c4.6,0.1,9.2-0.5,13.5-1.9
		c2.3,2.7,5.6,4.4,9.1,4.7c1,0.1,2,0.2,3,0.1h0.2l1.8,0.5l1.1,0.3c2.4,0.7,4.8,1.3,7.3,1.7c1.5,0.2,3,0.3,4.5,0.3
		c12.6,0,23.1-8,24.9-19c0.6-3.8,0.2-7.7-1.2-11.2c2.1-2,3.5-4.7,4-7.6C474,212.4,472,205.2,468.5,200.4z M469.2,216.8
		c-0.5,3-2.4,5.6-5.1,7c2.2,3.5,3,7.7,2.3,11.8c-1.5,9.1-10.3,15.7-20.9,15.7c-1.3,0-2.6-0.1-3.9-0.3c-2.3-0.4-4.6-0.9-6.8-1.6
		l-1.2-0.3l-2.3-0.6h-0.7c-0.8,0-1.6,0-2.4-0.1c-3.1-0.3-5.9-2-7.6-4.6c-0.2-0.3-0.5-0.7-0.7-1.1c-4.3,2.3-10.3,2.9-14.9,2.9
		c-2.1,0-4.2-0.1-6.2-0.3c-3.2-0.4-5.7-1.6-7.2-3.6c-3.3,1.5-7,2-10.6,1.7c-6.4-0.6-11.1-2.8-14.2-6.6c-1.7-2-2.8-4.4-3.4-7
		c-3.1,5.6-10.9,10.3-22.4,10.3c-0.8,0-1.6,0-2.4-0.1c-10.3-0.7-19-6.2-23.6-14.6c-1.9,2.3-4.1,4.2-6.6,5.8
		c-6.5,4.1-14,6.2-21.6,6.1c-15.7-0.5-26.8-10.2-28-23.8c-1.7,3.5-5.2,5.7-9,5.8c1.1,1.6,1.7,3.6,1.6,5.5v0.1
		c0.1,2.4-0.8,4.8-2.5,6.6c-2.8,2.8-7.7,4.8-22.8,4.9h-2.7l0,0c-5.5,0-11.4-0.4-15.1-3.3c-2.1,2.4-4.4,3.7-6.9,3.8c-1,0-2-0.1-3-0.2
		l0,0l-1.4-0.2h-0.4c-1.9-0.1-3.9-0.2-5.8-0.1c-11.2,0.4-22.6,1-33.8,1.6c-0.4,0-0.9,0-1.3,0c-2.4,0.1-4.7-0.5-6.8-1.7
		c-4.3,3-10.9,3.9-17,4.3c-3.4,0.3-12,0.9-17.1-2.8c-3.3,3.1-9.1,5-17.6,5.9c-2,0.2-4,0.3-6,0.3c-7.5,0-12.4-1.8-14.9-5.3
		c-1.6,1.8-3.8,3-6.1,3.5c-0.4,0.2-1.5,0.8-2,1.1c-4.8,3.1-10.3,5.2-16,6.1c-1.8,0.2-3.5,0.4-5.3,0.4c-18.5,0-34.7-13.3-37.5-30.9
		c-1.4-9,1-18.2,6.6-25.5c6.6-8.7,16.4-14.5,27.2-16c5.2-0.6,10.5-0.1,15.5,1.5c0.4,0.1,1.1,0.3,1.5,0.4l0.3-0.1
		c3.7-1.6,8.1-1.1,11.3,1.5c0.2-0.3,0.4-0.5,0.6-0.8c2-2.5,7.4-6.8,21.5-8.1c5.1-0.5,12-0.5,16.4,2.5c3.4-3.1,9.2-4.8,18.5-5.5
		c7.5-0.6,12.8,0,16.5,1.9c3.4-2.6,8-2.7,11.2-2.8h1.1c8.2-0.5,16.6-0.8,24.8-1.1h0.1c7.7-0.3,10.4-1.1,11.6-1.5
		c0.9-0.3,1.9-0.5,2.9-0.6c2.9-0.1,5.7,1,7.8,3.1c0.7,0.6,1.3,1.3,1.8,2.1c0.2-0.2,0.4-0.5,0.6-0.7c3.4-3.5,8.2-3.8,9.7-3.8
		c1.1,0,4,0.1,9.4,0.3h0.1c5.2,0.2,11.7,0.4,15.5,0.4l6.1-0.2h0.3c9.6-0.3,13-0.4,14-0.4c2.7,0.1,5.2,1.3,7,3.4
		c3.4,3.5,5.6,9.5,5.5,15c0,0.9-0.1,1.7-0.3,2.6c5.8-2.9,12.1-4.2,18.6-3.9c8,0.2,15.5,3.5,21,9.4c1.3,1.4,2.4,3,3.4,4.6
		c1-1.3,2.2-2.6,3.5-3.7c6.2-5.5,14.6-8.1,23.6-7.5h0.1c7.3,0.5,13.6,3,18,7c5.5-4.1,18.4-3.5,23.8-3l0,0l1.9,0.2
		c4,0.4,5.9,2.5,6.8,4.1l0.1,0.2c3.4-1.1,7-1.6,10.6-1.6c3.5-0.1,7,0.1,10.5,0.5c5.3,0.4,9.3,5,9,10.4c0.9-1,1.9-2,3-2.8
		c4.6-3.5,10.7-4.9,17.2-3.9c2,0.3,4,0.8,5.9,1.4l0.3,0.1c1.1,0.4,1.7,0.6,2.1,0.7h0.1l0.6-0.1c1.4-0.3,2.8-0.3,4.2-0.1
		c2.9,0.5,5.5,2.3,7.2,4.8l0,0C468.2,206.7,469.8,212.8,469.2,216.8z"/>
	<path class="st1" d="M71.3,219.7c-2.6,0.3-3.5,6.2-14,7.5c-11.6,1.5-19.6-7.9-21.4-20.1c-0.7-4.5,1.2-10.9,7.8-11.7
		c15.1-2,14.8,12.9,23.4,11.8c5-0.6,7.4-4.9,6.8-9.6c-1-9.1-6.3-13.8-9.9-13.4c-1.4,0.2-1.9,0.8-3.8,1c-2.2,0.3-8.1-3.1-16.5-2
		c-17,2.2-31.4,17.8-28.7,34.6c2.7,16.5,18.9,27.9,36.1,25.5c9.7-1.3,14.9-6.8,17.7-7.2c4.1-0.5,7-8.5,6.6-12.2
		C75.2,222.1,73.7,219.4,71.3,219.7z"/>
	<path class="st1" d="M144.1,224c-2.3-1.1-2.8-2.3-2.9-4.8l-1.5-21.5c-0.9-13.1,0-13,2.5-14.2c1.6-0.7,2.5-2.3,2.4-4
		c-0.4-5.8-11.8-5.1-15.9-4.8c-17.1,1.3-16.4,6-16.2,7.5c0.2,2.1,1.8,2.8,3.5,3.5c1.2,0.5,2.7,0.9,3.4,9.9c0.2,2.6,0.4,3.4-5.1,3.9
		L110,200c-4.1,0.4-6.2,1.1-6.6-3.5c-0.7-7.4-0.3-8.4,1.8-9.7c1.9-1.3,3.2-2.4,3-4.9c-0.4-5-10.4-4.5-14.1-4.1
		c-4.8,0.5-19.1,2.7-18.4,9c0.2,1.6,1.8,2.2,3.2,2.7c3.3,1.3,3.5-0.5,5.9,21.4c1.9,17.2,0.8,17.1-2.1,18.8c-1.3,0.8-2.4,2-2.2,3.8
		c0.6,5.6,12.1,4.7,15.9,4.3c3.9-0.4,15.9-1.9,15.4-7.7c-0.5-5.4-5.2-0.3-6.3-11.6c-0.7-7.4-1.8-7.7,9.9-8.7
		c4.2-0.4,5.2-0.6,5.6,3.9c1.4,16.8-5.3,10.3-4.4,16.6c0.5,5.5,11.1,4.7,14.7,4.4c16.2-1.2,16.1-5.3,16-7.3S145.8,224.8,144.1,224z"
		/>
	<path class="st1" d="M204.2,209.8c-6.9,0.2-1.7,11.6-18.8,12.2c-8.7,0.4-9.5,1-10.1-11.1c-0.1-2.6-0.4-5.8,3.2-5.9
		c8.5-0.4,3.6,8.5,8.8,8.3c5-0.2,5.3-10.1,5.2-13.5c-0.1-3.2-0.8-12.5-5.7-12.4c-6.1,0.2-0.8,9.2-7.3,9.5c-5.2,0.2-5.4,0.1-5.6-4.7
		c-0.4-9.5-1.4-11.1,8-11.5c16.3-0.6,11.1,7.6,17.8,7.4c3.3-0.1,4.4-3.3,4.3-6.1c-0.1-3.6-2.4-11.7-7.3-11.5c-1.4,0-3,1.7-14.5,2.1
		c-8.3,0.3-16.5,0.7-24.8,1.1c-3.5,0.2-10.8-0.2-10.5,4.8c0.4,5.9,6.5-1.1,7.8,11.5c1.7,14.9,1.5,13.4,1.4,28.5
		c-0.1,8.8-5.9,5.5-5.6,10.1c0.1,1.1,0.3,3.5,5.8,3.2c11.3-0.7,22.7-1.2,34-1.6c2.8-0.1,5.1,0.1,7,0.2s3.1,0.4,3.6,0.4
		c3.3-0.1,7.5-10.3,7.4-15.9C208.3,212.7,206.9,209.7,204.2,209.8z"/>
	<path class="st1" d="M268.3,183.4c0.1-5.6-3.3-12.2-6.6-12.2c-1.2-0.1-18.5,0.6-20.3,0.6c-7.1,0-22.7-0.7-24.9-0.7
		c-2.8,0-6.5,1.4-6.5,4.6c0.1,4.5,5.6,1.1,6.8,8.2c0.4,3.9,0.6,7.9,0.5,11.9l0.2,11.5c0,2.7-0.1,8.6-0.9,10.9
		c-1.7,4.4-6.2,2.3-6.1,7c0.1,3.6,2.3,5.4,15.5,5.2c20.1-0.2,19.4-3.7,19.4-5.6c0-6.3-8.4,0.5-8.1-11.7c0.1-8.5-0.4-9.1,3.3-9.1
		c9,0,3.4,9.3,8.8,9.4c5.7,0,6.2-9.9,6.3-13.8c0-3.2-0.2-12.2-5.1-12.2c-6,0-1.8,7.6-8.4,7.5c-4.9,0-5-1.4-5-2.9
		c0-12,2.2-11.5,7.4-11.5c16.5,0.1,13.3,8.6,19.1,8.7C266.8,189.1,268.2,186.2,268.3,183.4z"/>
	<path class="st1" d="M292.3,188.3c-14.1-0.5-27.6,7.5-27.8,22.3c-0.2,13,10.1,20.3,22.3,20.7s27.1-7.1,27.8-20.5
		C315.2,200.6,307.2,188.8,292.3,188.3z M295,216.1c-0.1,2.6-0.9,5.2-4,5c-5.7-0.5-6.8-13.2-7-18.4c-0.1-2.4,1.5-4.9,4.3-4.8
		C294.1,198,295.2,212.4,295,216.1z"/>
	<path class="st1" d="M343.6,191.1c-14.3-1-25.5,8-26.1,19.8c-0.6,12.5,8.9,22.2,21.4,23c11.5,0.8,19.5-4.8,19.9-9.6
		c0.2-2-1.1-4.5-3.4-4.7c-1.8-0.1-3.7,1.8-8.9,1.4c-6.6-0.5-10.7-6.9-10.3-13c0.2-3.3,2.5-6.8,6.2-6.5c6.7,0.5,1.7,10.3,10.8,11
		c4.4,0.5,8.4-2.6,8.9-7c0-0.1,0-0.3,0-0.4C362.5,199.4,356.4,192,343.6,191.1z"/>
	<path class="st1" d="M415.6,227.4c0.7-5.4,1.4-10.9,2-16.3c0.3-2.6,0.8-5.1,1.1-7.7c0.4-2.8-0.7-4.7-3.8-5.1
		c-3.2-0.4-20.4-1.6-20.9,3.3c-0.4,3.4,3.9,2.5,4.1,6.6c0,3-0.2,5.9-0.6,8.8c-0.4,3.9-0.5,11.6-6.4,11c-4.5-0.5-4.2-5.5-3.9-8.8
		l2.2-20.7c0.2-2,0.1-3.1-2.3-3.4c-0.7-0.1-22.1-1.9-22.5,3.4s5.9,0.4,4.7,12.9c-1.1,12.3-3.5,24.3,12.1,25.9
		c2.9,0.3,5.9-0.3,8.5-1.6c2.1-1,3.6-2.1,4.5-2c3.3,0.4-1.5,4.8,4.9,5.5c4.5,0.5,19.3,0.7,20-4.8C419.8,230.6,415,232.3,415.6,227.4
		z"/>
	<path class="st1" d="M457.2,203.9c-0.8-0.1-1.6,0-2.4,0.1c-0.8,0.2-1.6,0.3-2.4,0.2c-1.2-0.3-2.3-0.6-3.4-1.1
		c-1.6-0.5-3.3-0.9-5-1.2c-8.7-1.3-16.3,2.9-17.4,11c-1.7,13.3,14.5,16.2,13.8,20.9c-0.3,1.8-1.9,2.4-3.6,2.1
		c-4.6-0.6-6.8-9.1-10.5-9.6c-2.4-0.3-3.4,1.3-3.7,3.4c-0.4,3.1,1.1,8,2.8,10.5c0.7,1.2,2,2,3.4,2c0.5,0,1.1,0,1.6,0
		c0.6,0,1.1,0,1.7,0.1c0.5,0.1,2.3,0.6,4.3,1.1c2,0.6,4,1.1,6,1.4c8.5,1.2,16.8-2.8,18-10.4c2-12.5-16.2-16.3-15.5-21.4
		c0.3-1.6,1.9-2.6,3.4-2.3c3.7,0.5,5.4,7.3,10.2,8.1c2.2,0.4,4.3-1,4.7-3.1C463.8,212.6,461.1,204.5,457.2,203.9z"/>
	<path class="st2" d="M104.4,268.5L104.4,268.5c-0.1-4.7,3.7-8.6,8.4-8.7c0.1,0,0.2,0,0.4,0c2.5-0.1,4.9,0.8,6.6,2.6l-2.4,2.7
		c-1.1-1.2-2.7-1.8-4.3-1.9c-2.8,0.1-4.9,2.4-4.9,5.1c0,0,0,0.1,0,0.1v0c-0.1,2.8,2,5.1,4.7,5.3c0,0,0.1,0,0.1,0
		c1.7,0,3.3-0.7,4.4-2l2.4,2.4c-1.7,2-4.3,3.1-6.9,3c-4.7,0.1-8.5-3.6-8.6-8.3C104.4,268.7,104.4,268.6,104.4,268.5z"/>
	<path class="st2" d="M122.1,268.5L122.1,268.5c0-4.9,4-8.9,8.9-8.9s8.9,4,8.9,8.9v0c0,4.9-4,8.9-8.9,8.9
		C126.1,277.4,122.1,273.4,122.1,268.5z M136.1,268.5L136.1,268.5c0.1-2.8-2.1-5.2-4.9-5.3c-0.1,0-0.1,0-0.2,0c-2.8,0-5,2.2-5,5
		c0,0.1,0,0.2,0,0.2v0c-0.1,2.8,2.1,5.2,4.9,5.3c0.1,0,0.1,0,0.2,0c2.8,0,5-2.3,5-5C136.1,268.6,136.1,268.6,136.1,268.5
		L136.1,268.5z"/>
	<path class="st2" d="M142.5,268.5L142.5,268.5c0.2-4.9,4.3-8.8,9.2-8.7c4.7,0.1,8.5,3.9,8.7,8.6v0c-0.2,4.9-4.3,8.8-9.2,8.6
		C146.4,276.9,142.6,273.2,142.5,268.5z M156.5,268.5L156.5,268.5c0.1-2.8-2.1-5.2-4.9-5.3c-0.1,0-0.1,0-0.2,0c-2.8,0-5,2.2-5,5
		c0,0.1,0,0.2,0,0.2v0c-0.1,2.8,2.1,5.2,4.9,5.3c0,0,0.1,0,0.1,0c2.8,0,5-2.2,5-5C156.5,268.6,156.5,268.6,156.5,268.5L156.5,268.5z
		"/>
	<path class="st2" d="M163.6,260h3.7v7.3l6.8-7.3h4.5l-6.9,7.1l7.1,9.7h-4.4l-5.2-7.2l-1.9,2v5.1h-3.7V260z"/>
	<path class="st0" d="M188.9,269h-5.2v-1.2h5.2v-5.2h1.2v5.2h5.2v1.2H190v5.1h-1.2L188.9,269z"/>
	<path class="st2" d="M201.3,274.4l2.1-2.6c1.3,1.2,3,2,4.8,2c1.4,0,2.3-0.6,2.3-1.6l0,0c0-0.9-0.5-1.4-3.2-2.1
		c-3.2-0.9-5.3-1.8-5.3-5.1l0,0c0-3,2.3-5.1,5.6-5.1c2.2,0,4.3,0.7,5.9,2.1l-1.8,2.8c-1.2-1-2.6-1.6-4.1-1.7c-1.3,0-2,0.7-2,1.5l0,0
		c0,1.1,0.7,1.5,3.4,2.2c3.2,0.9,5.1,2.1,5.1,5l0,0c0,3.3-2.4,5.2-5.9,5.2C205.6,277,203.2,276.1,201.3,274.4z"/>
	<path class="st2" d="M217.2,260h3.7v6.6h6.8V260h3.7v16.8h-3.7v-6.7h-6.8v6.7h-3.7V260z"/>
	<path class="st2" d="M241.2,259.9h3.4l7.2,16.9h-3.9l-1.5-3.7h-7.1l-1.5,3.8H234L241.2,259.9z M245,269.8l-2.2-5.4l-2.2,5.4H245z"
		/>
	<path class="st2" d="M254.3,260h7.7c1.8-0.1,3.6,0.5,4.9,1.7c1,1,1.5,2.4,1.4,3.8l0,0c0.1,2.3-1.4,4.5-3.6,5.2l4.1,6h-4.3l-3.6-5.4
		H258v5.4h-3.7L254.3,260z M261.8,268.2c1.8,0,2.8-1,2.8-2.4v0c0-1.6-1.1-2.4-2.9-2.4H258v4.8H261.8z"/>
	<path class="st2" d="M271.7,260h12.7v3.3h-9v3.4h7.9v3.3h-7.9v3.5h9.1v3.3h-12.8V260z"/>
	<path class="st0" d="M295.5,269h-5.2v-1.2h5.2v-5.2h1.2v5.2h5.2v1.2h-5.2v5.1h-1.2V269z"/>
	<path class="st2" d="M308.5,260h3.7v13.4h8.4v3.4h-12.1V260z"/>
	<path class="st2" d="M322.6,268.5L322.6,268.5c0-4.9,4-8.9,8.9-8.9c4.9,0,8.9,4,8.9,8.9v0c0,4.9-4,8.9-8.9,8.9
		C326.6,277.4,322.6,273.4,322.6,268.5z M336.6,268.5L336.6,268.5c0.1-2.8-2.1-5.2-4.9-5.3c-0.1,0-0.1,0-0.2,0c-2.8,0-5,2.2-5,5
		c0,0.1,0,0.2,0,0.2v0c-0.1,2.8,2.1,5.2,4.9,5.3c0.1,0,0.1,0,0.2,0c2.8,0,5-2.3,5-5C336.5,268.6,336.5,268.6,336.6,268.5
		L336.6,268.5z"/>
	<path class="st2" d="M342.3,260h4.1l4.4,11.8l4.4-11.8h4l-6.8,16.9H349L342.3,260z"/>
	<path class="st2" d="M361.7,260h12.7v3.3h-9v3.4h7.9v3.3h-7.9v3.5h9.1v3.3h-12.8V260z"/>
	<polygon class="st0" points="239,290.4 245.2,302.9 259.1,304.9 249,314.7 251.4,328.5 239,322 226.6,328.5 229,314.7 219,304.9 
		232.8,302.9 	"/>
	<path class="st3" d="M386.6,249.1v36.3c-42.2,14.8-78.1,23.1-122.3,24.8c0.4,1.4,0.5,2.9,0.5,4.3c0,1.6-0.2,3.1-0.6,4.6
		c46.3-1.8,84.3-10.5,128.4-26.4l3-1.1v-41c-1.9-0.5-3.6-1.3-5.1-2.4C389.2,248.7,388,249,386.6,249.1z"/>
	<path class="st3" d="M213.7,310.2c-44.2-1.7-80.1-10-122.3-24.8v-35.3h-0.4c-2.9,0-5.7-0.3-8.5-0.9v42.6l3,1.1
		c44.1,15.9,82.1,24.7,128.4,26.4c-0.4-1.5-0.6-3.1-0.6-4.6C213.2,313.1,213.3,311.6,213.7,310.2z"/>
	<path class="st3" d="M91.4,152.3c36.9-13,75.4-21,114.4-23.9c0.9-2.9,1.2-6,1-9c-41.4,2.9-82.3,11.5-121.4,25.6l-3,1.1v21.6
		c3-0.8,6-1.3,9-1.7L91.4,152.3z"/>
	<path class="st3" d="M392.6,144.9c-39.2-14.1-73-22.6-114.2-25.6c-2.2,3.1-4.8,5.9-7.6,8.5c41.7,2.3,76.1,10.5,115.9,24.5v30.8
		l1.6,0.1c2.7,0.2,5.3,1.3,7.4,3V146L392.6,144.9z"/>
	<path class="st0" d="M193.9,150.7c27-18.1,26.7-41.9,18.4-57.6c-5.5-10.4-10.2-22.4-1.9-46.9c-20.8,19.1-11.5,45.8-2.5,66.1
		C216.4,131.3,193.9,150.7,193.9,150.7z M257.2,135.3c27-18.1,28.6-37.9,18.4-57.6c-5.4-10.4-11.2-24.5-1.9-46.9
		c-23.3,20.4-9.3,46.4-2.5,66.1S257.2,135.3,257.2,135.3L257.2,135.3z M219.3,156.5c38.4-25.6,36.1-63.2,26.1-81.8
		c-7.9-14.7-14.5-31.7-2.6-66.5c-31.7,28.1-13.2,65.8-3.5,93.8S219.3,156.5,219.3,156.5L219.3,156.5z"/>
	
		<linearGradient id="SVGID_1_" gradientUnits="userSpaceOnUse" x1="-447.2361" y1="-134.6559" x2="-447.2361" y2="-195.3377" gradientTransform="matrix(1 0 0 -1 492.34 48.35)">
		<stop  offset="0.39" style="stop-color:#F15D22"/>
		<stop  offset="1" style="stop-color:#CB2027"/>
	</linearGradient>
	<path class="st4" d="M71.3,219.7c-2.6,0.3-3.5,6.2-14,7.5c-11.6,1.5-19.6-7.9-21.4-20.1c-0.7-4.5,1.2-10.9,7.8-11.7
		c15.1-2,14.8,12.9,23.4,11.8c5-0.6,7.4-4.9,6.8-9.6c-1-9.1-6.3-13.8-9.9-13.4c-1.4,0.2-1.9,0.8-3.8,1c-2.2,0.3-8.1-3.1-16.5-2
		c-17,2.2-31.4,17.8-28.7,34.6c2.7,16.5,18.9,27.9,36.1,25.5c9.7-1.3,14.9-6.8,17.7-7.2c4.1-0.5,7-8.5,6.6-12.2
		C75.2,222.1,73.7,219.4,71.3,219.7z"/>
	
		<linearGradient id="SVGID_2_" gradientUnits="userSpaceOnUse" x1="-380.9442" y1="-126.1966" x2="-380.9442" y2="-189.7298" gradientTransform="matrix(1 0 0 -1 492.34 48.35)">
		<stop  offset="0.39" style="stop-color:#F15D22"/>
		<stop  offset="1" style="stop-color:#CB2027"/>
	</linearGradient>
	<path class="st5" d="M144.1,224c-2.3-1.1-2.8-2.3-2.9-4.8l-1.5-21.5c-0.9-13.1,0-13,2.5-14.2c1.6-0.7,2.5-2.3,2.4-4
		c-0.4-5.8-11.8-5.1-15.9-4.8c-17.1,1.3-16.4,6-16.2,7.5c0.2,2.1,1.8,2.8,3.5,3.5c1.2,0.5,2.7,0.9,3.4,9.9c0.2,2.6,0.4,3.4-5.1,3.9
		L110,200c-4.1,0.4-6.2,1.1-6.6-3.5c-0.7-7.4-0.3-8.4,1.8-9.7c1.9-1.3,3.2-2.4,3-4.9c-0.4-5-10.4-4.5-14.1-4.1
		c-4.8,0.5-19.1,2.7-18.4,9c0.2,1.6,1.8,2.2,3.2,2.7c3.3,1.3,3.5-0.5,5.9,21.4c1.9,17.2,0.8,17.1-2.1,18.8c-1.3,0.8-2.4,2-2.2,3.8
		c0.6,5.6,12.1,4.7,15.9,4.3c3.9-0.4,15.9-1.9,15.4-7.7c-0.5-5.4-5.2-0.3-6.3-11.6c-0.7-7.4-1.8-7.7,9.9-8.7
		c4.2-0.4,5.2-0.6,5.6,3.9c1.4,16.8-5.3,10.3-4.4,16.6c0.5,5.5,11.1,4.7,14.7,4.4c16.2-1.2,16.1-5.3,16-7.3S145.8,224.8,144.1,224z"
		/>
	
		<linearGradient id="SVGID_3_" gradientUnits="userSpaceOnUse" x1="-314.7084" y1="-122.1384" x2="-314.7084" y2="-183.5919" gradientTransform="matrix(1 0 0 -1 492.34 48.35)">
		<stop  offset="0.39" style="stop-color:#F15D22"/>
		<stop  offset="1" style="stop-color:#CB2027"/>
	</linearGradient>
	<path class="st6" d="M204.2,209.8c-6.9,0.2-1.7,11.6-18.8,12.2c-8.7,0.4-9.5,1-10.1-11.1c-0.1-2.6-0.4-5.8,3.2-5.9
		c8.5-0.4,3.6,8.5,8.8,8.3c5-0.2,5.3-10.1,5.2-13.5c-0.1-3.2-0.8-12.5-5.7-12.4c-6.1,0.2-0.8,9.2-7.3,9.5c-5.2,0.2-5.4,0.1-5.6-4.7
		c-0.4-9.5-1.4-11.1,8-11.5c16.3-0.6,11.1,7.6,17.8,7.4c3.3-0.1,4.4-3.3,4.3-6.1c-0.1-3.6-2.4-11.7-7.3-11.5c-1.4,0-3,1.7-14.5,2.1
		c-8.3,0.3-16.5,0.7-24.8,1.1c-3.5,0.2-10.8-0.2-10.5,4.8c0.4,5.9,6.5-1.1,7.8,11.5c1.7,14.9,1.5,13.4,1.4,28.5
		c-0.1,8.8-5.9,5.5-5.6,10.1c0.1,1.1,0.3,3.5,5.8,3.2c11.3-0.7,22.7-1.2,34-1.6c2.8-0.1,5.1,0.1,7,0.2s3.1,0.4,3.6,0.4
		c3.3-0.1,7.5-10.3,7.4-15.9C208.3,212.7,206.9,209.7,204.2,209.8z"/>
	
		<linearGradient id="SVGID_4_" gradientUnits="userSpaceOnUse" x1="-253.2282" y1="-122.7974" x2="-253.2282" y2="-182.051" gradientTransform="matrix(1 0 0 -1 492.34 48.35)">
		<stop  offset="0.39" style="stop-color:#F15D22"/>
		<stop  offset="1" style="stop-color:#CB2027"/>
	</linearGradient>
	<path class="st7" d="M268.3,183.4c0.1-5.6-3.3-12.2-6.6-12.2c-1.2-0.1-18.5,0.6-20.3,0.6c-7.1,0-22.7-0.7-24.9-0.7
		c-2.8,0-6.5,1.4-6.5,4.6c0.1,4.5,5.6,1.1,6.8,8.2c0.4,3.9,0.6,7.9,0.5,11.9l0.2,11.5c0,2.7-0.1,8.6-0.9,10.9
		c-1.7,4.4-6.2,2.3-6.1,7c0.1,3.6,2.3,5.4,15.5,5.2c20.1-0.2,19.4-3.7,19.4-5.6c0-6.3-8.4,0.5-8.1-11.7c0.1-8.5-0.4-9.1,3.3-9.1
		c9,0,3.4,9.3,8.8,9.4c5.7,0,6.2-9.9,6.3-13.8c0-3.2-0.2-12.2-5.1-12.2c-6,0-1.8,7.6-8.4,7.5c-4.9,0-5-1.4-5-2.9
		c0-12,2.2-11.5,7.4-11.5c16.5,0.1,13.3,8.6,19.1,8.7C266.8,189.1,268.2,186.2,268.3,183.4z"/>
	
		<linearGradient id="SVGID_5_" gradientUnits="userSpaceOnUse" x1="-202.8113" y1="-139.8746" x2="-202.8113" y2="-182.9252" gradientTransform="matrix(1 0 0 -1 492.34 48.35)">
		<stop  offset="0.39" style="stop-color:#F15D22"/>
		<stop  offset="1" style="stop-color:#CB2027"/>
	</linearGradient>
	<path class="st8" d="M292.3,188.3c-14.1-0.5-27.6,7.5-27.8,22.3c-0.2,13,10.1,20.3,22.3,20.7s27.1-7.1,27.8-20.5
		C315.2,200.6,307.2,188.8,292.3,188.3z M295,216.1c-0.1,2.6-0.9,5.2-4,5c-5.7-0.5-6.8-13.2-7-18.4c-0.1-2.4,1.5-4.9,4.3-4.8
		C294.1,198,295.2,212.4,295,216.1z"/>
	
		<linearGradient id="SVGID_6_" gradientUnits="userSpaceOnUse" x1="-152.5703" y1="-142.6571" x2="-152.5703" y2="-185.6674" gradientTransform="matrix(1 0 0 -1 492.34 48.35)">
		<stop  offset="0.39" style="stop-color:#F15D22"/>
		<stop  offset="1" style="stop-color:#CB2027"/>
	</linearGradient>
	<path class="st9" d="M343.6,191.1c-14.3-1-25.5,8-26.1,19.8c-0.6,12.5,8.9,22.2,21.4,23c11.5,0.8,19.5-4.8,19.9-9.6
		c0.2-2-1.1-4.5-3.4-4.7c-1.8-0.1-3.7,1.8-8.9,1.4c-6.6-0.5-10.7-6.9-10.3-13c0.2-3.3,2.5-6.8,6.2-6.5c6.7,0.5,1.7,10.3,10.8,11
		c4.4,0.5,8.4-2.6,8.9-7c0-0.1,0-0.3,0-0.4C362.5,199.4,356.4,192,343.6,191.1z"/>
	
		<linearGradient id="SVGID_7_" gradientUnits="userSpaceOnUse" x1="-100.3528" y1="-146.455" x2="-100.3528" y2="-191.1111" gradientTransform="matrix(1 0 0 -1 492.34 48.35)">
		<stop  offset="0.39" style="stop-color:#F15D22"/>
		<stop  offset="1" style="stop-color:#CB2027"/>
	</linearGradient>
	<path class="st10" d="M415.6,227.4c0.7-5.4,1.4-10.9,2-16.3c0.3-2.6,0.8-5.1,1.1-7.7c0.4-2.8-0.7-4.7-3.8-5.1
		c-3.2-0.4-20.4-1.6-20.9,3.3c-0.4,3.4,3.9,2.5,4.1,6.6c0,3-0.2,5.9-0.6,8.8c-0.4,3.9-0.5,11.6-6.4,11c-4.5-0.5-4.2-5.5-3.9-8.8
		l2.2-20.7c0.2-2,0.1-3.1-2.3-3.4c-0.7-0.1-22.1-1.9-22.5,3.4s5.9,0.4,4.7,12.9c-1.1,12.3-3.5,24.3,12.1,25.9
		c2.9,0.3,5.9-0.3,8.5-1.6c2.1-1,3.6-2.1,4.5-2c3.3,0.4-1.5,4.8,4.9,5.5c4.5,0.5,19.3,0.7,20-4.8C419.8,230.6,415,232.3,415.6,227.4
		z"/>
	
		<linearGradient id="SVGID_8_" gradientUnits="userSpaceOnUse" x1="-49.3732" y1="-153.4091" x2="-49.3732" y2="-196.929" gradientTransform="matrix(1 0 0 -1 492.34 48.35)">
		<stop  offset="0.39" style="stop-color:#F15D22"/>
		<stop  offset="1" style="stop-color:#CB2027"/>
	</linearGradient>
	<path class="st11" d="M457.2,203.9c-0.8-0.1-1.6,0-2.4,0.1c-0.8,0.2-1.6,0.3-2.4,0.2c-1.2-0.3-2.3-0.6-3.4-1.1
		c-1.6-0.5-3.3-0.9-5-1.2c-8.7-1.3-16.3,2.9-17.4,11c-1.7,13.3,14.5,16.2,13.8,20.9c-0.3,1.8-1.9,2.4-3.6,2.1
		c-4.6-0.6-6.8-9.1-10.5-9.6c-2.4-0.3-3.4,1.3-3.7,3.4c-0.4,3.1,1.1,8,2.8,10.5c0.7,1.2,2,2,3.4,2c0.5,0,1.1,0,1.6,0
		c0.6,0,1.1,0,1.7,0.1c0.5,0.1,2.3,0.6,4.3,1.1c2,0.6,4,1.1,6,1.4c8.5,1.2,16.8-2.8,18-10.4c2-12.5-16.2-16.3-15.5-21.4
		c0.3-1.6,1.9-2.6,3.4-2.3c3.7,0.5,5.4,7.3,10.2,8.1c2.2,0.4,4.3-1,4.7-3.1C463.8,212.6,461.1,204.5,457.2,203.9z"/>
</g>
</svg>
